Coordinates
version=1
nRows=18
nColumns=22
inDegrees=yes

Units are S.I. units (second, meters, Newtons, ...)
If the header above contains a line with 'inDegrees', this indicates whether rotational values are in degrees (yes) or radians (no).

endheader
time	pelvis_tilt	pelvis_list	pelvis_rotation	pelvis_tx	pelvis_ty	pelvis_tz	hip_flexion_r	hip_adduction_r	hip_rotation_r	knee_angle_r	ankle_angle_r	subtalar_angle_r	hip_flexion_l	hip_adduction_l	hip_rotation_l	knee_angle_l	ankle_angle_l	subtalar_angle_l	lumbar_extension	lumbar_bending	lumbar_rotation
      1.35000000	      0.29345508	     -1.71892117	     -5.68148013	     -1.26531902	      0.93389656	     -0.01221353	     -1.85296326	      2.90365114	     -0.88710740	    -10.86269475	      7.75608192	     -1.16656673	     -1.47219106	     -2.58077600	    -11.22731603	    -12.77998648	     10.18781428	     -0.69260237	     -4.24990932	     -1.27248453	      1.49521139
      1.36000000	      0.27825383	     -1.70994299	     -5.67577578	     -1.26500918	      0.93385299	     -0.01212269	     -1.86435268	      2.90194013	     -0.88999866	    -10.85017711	      7.76832273	     -1.17596735	     -1.51698143	     -2.57303058	    -11.24198511	    -12.70219917	     10.18857488	     -0.68052558	     -4.21731110	     -1.28028057	      1.47915538
      1.37000000	      0.28342100	     -1.67727291	     -5.67482366	     -1.26469717	      0.93383957	     -0.01201084	     -1.89514163	      2.87482128	     -0.87073749	    -10.83938743	      7.80377604	     -1.22617351	     -1.59940222	     -2.53179511	    -11.20641775	    -12.58707885	     10.15056952	     -0.63906246	     -4.20844058	     -1.32365975	      1.48736304
      1.38000000	      0.26963466	     -1.66821603	     -5.65916508	     -1.26439592	      0.93379338	     -0.01192457	     -1.90370217	      2.87524892	     -0.87179532	    -10.83506323	      7.81822370	     -1.24583436	     -1.63244720	     -2.52727365	    -11.23074389	    -12.53100904	     10.15173755	     -0.63093079	     -4.18292731	     -1.33024136	      1.45510023
      1.39000000	      0.25194442	     -1.65406824	     -5.64297215	     -1.26411860	      0.93373873	     -0.01181944	     -1.90545109	      2.87389969	     -0.86270831	    -10.83048652	      7.84384329	     -1.27595609	     -1.66411992	     -2.51739182	    -11.23352514	    -12.46306480	     10.15352478	     -0.62191160	     -4.15916561	     -1.34817048	      1.43000321
      1.40000000	      0.23656457	     -1.63216592	     -5.62768655	     -1.26384625	      0.93368182	     -0.01171695	     -1.90337075	      2.86409250	     -0.84336749	    -10.83803581	      7.88477223	     -1.32807869	     -1.69555831	     -2.49719615	    -11.21315827	    -12.39838354	     10.15109003	     -0.61009094	     -4.13790169	     -1.37427827	      1.40944331
      1.41000000	      0.22358056	     -1.59977031	     -5.61894844	     -1.26358293	      0.93361859	     -0.01162533	     -1.89222395	      2.84079064	     -0.82401687	    -10.86661416	      7.94733751	     -1.42114777	     -1.72387735	     -2.46255021	    -11.17213898	    -12.34358083	     10.14594888	     -0.59427710	     -4.12007690	     -1.40708477	      1.39263741
      1.42000000	      0.21497130	     -1.59338300	     -5.60489208	     -1.26334203	      0.93356278	     -0.01150390	     -1.89511002	      2.84771606	     -0.82100207	    -10.87562837	      7.94928519	     -1.42607135	     -1.73078399	     -2.46662660	    -11.17235062	    -12.34363144	     10.14624872	     -0.59388317	     -4.11762682	     -1.41828204	      1.39485078
      1.43000000	      0.18746855	     -1.55097240	     -5.60085546	     -1.26313992	      0.93345530	     -0.01138443	     -1.84157427	      2.81563889	     -0.82544022	    -10.94698063	      8.04383935	     -1.56556834	     -1.72682408	     -2.42571679	    -11.11692613	    -12.31261180	     10.16953943	     -0.57916801	     -4.09850096	     -1.46825862	      1.39862336
      1.44000000	      0.18076115	     -1.54270829	     -5.59592325	     -1.26295086	      0.93338781	     -0.01124287	     -1.82313445	      2.82032719	     -0.80648900	    -10.99746891	      8.04189868	     -1.58276285	     -1.72767222	     -2.42779957	    -11.10490426	    -12.32319395	     10.17590250	     -0.57823654	     -4.11497371	     -1.48001215	      1.38542332
      1.45000000	      0.14773360	     -1.51920600	     -5.60311444	     -1.26276241	      0.93326432	     -0.01107583	     -1.75479768	      2.80922532	     -0.82134252	    -11.08729173	      8.09799509	     -1.63774500	     -1.70183528	     -2.41521361	    -11.08176103	    -12.33223879	     10.22316105	     -0.57256690	     -4.09922452	     -1.50937351	      1.40796768
      1.46000000	      0.14013795	     -1.51116865	     -5.60495489	     -1.26259102	      0.93319266	     -0.01088898	     -1.72714703	      2.81540987	     -0.80359580	    -11.15130388	      8.09925471	     -1.64718789	     -1.69560909	     -2.42056178	    -11.05993380	    -12.35603383	     10.23009564	     -0.57101696	     -4.12562213	     -1.52457280	      1.41092025
      1.47000000	      0.09458585	     -1.49138522	     -5.62163958	     -1.26240379	      0.93305053	     -0.01066439	     -1.63288599	      2.81050000	     -0.83206043	    -11.26501654	      8.16674919	     -1.68006369	     -1.65417910	     -2.41840140	    -11.06215721	    -12.37290179	     10.28250409	     -0.55988998	     -4.10352973	     -1.55229694	      1.44898518
      1.48000000	      0.05098573	     -1.47915296	     -5.63471226	     -1.26221063	      0.93292456	     -0.01040356	     -1.55011805	      2.81765216	     -0.83985730	    -11.36242998	      8.20558539	     -1.70800421	     -1.61029574	     -2.42860837	    -11.05860334	    -12.40124974	     10.30635942	     -0.54710517	     -4.08812686	     -1.57293974	      1.47297260
      1.49000000	      0.01265371	     -1.46784465	     -5.64493096	     -1.26197112	      0.93280986	     -0.01012329	     -1.48470597	      2.82643548	     -0.85293447	    -11.44336427	      8.24661722	     -1.72978413	     -1.57991020	     -2.43962407	    -11.06042229	    -12.41908252	     10.33388888	     -0.53070995	     -4.07667338	     -1.59186624	      1.49372621
      1.50000000	     -0.00630219	     -1.46263112	     -5.65021659	     -1.26169338	      0.93273374	     -0.00981164	     -1.45244130	      2.84269976	     -0.85425346	    -11.50613179	      8.26345733	     -1.73829970	     -1.57934049	     -2.45689045	    -11.05382778	    -12.42373421	     10.34552945	     -0.52289892	     -4.08778020	     -1.60769826	      1.49794670
      1.51000000	     -0.02295540	     -1.45403994	     -5.64819769	     -1.26132197	      0.93266702	     -0.00947603	     -1.45415134	      2.85771004	     -0.85763120	    -11.51735419	      8.26795368	     -1.73920451	     -1.58819750	     -2.47213434	    -11.05390281	    -12.42500112	     10.34805724	     -0.52186712	     -4.08607617	     -1.62839646	      1.49883291
      1.52000000	     -0.07886641	     -1.43488083	     -5.64949015	     -1.26096021	      0.93251242	     -0.00915051	     -1.36385017	      2.86137637	     -0.91592033	    -11.62892425	      8.39391750	     -1.78297514	     -1.55058284	     -2.47958066	    -11.05420123	    -12.43295158	     10.40289260	     -0.46941201	     -4.04083115	     -1.65012801	      1.52334025
